<svg height="512" viewBox="0 0 64 64" width="512" xmlns="http://www.w3.org/2000/svg"><g fill="#9bc9ff"><path d="m57.21 3.96a4 4 0 0 0 -5.65 0l-2.83 2.83 8.48 8.48 2.83-2.83a4 4 0 0 0 0-5.65z"/><path d="m45.9 9.62-36.77 36.76 4.24 4.25h.01l4.24 4.24 36.76-36.77-4.24-4.24z"/><path d="m2.77 61.23 6.93-2.97-3.96-3.96z"/></g><path d="m60.749 6.08-2.829-2.829a5 5 0 0 0 -7.07 0l-42.427 42.427a1 1 0 0 0 -.212.313l-6.364 14.85a1 1 0 0 0 .919 1.393.988.988 0 0 0 .393-.081l14.85-6.364a1 1 0 0 0 .313-.212l42.427-42.427a5 5 0 0 0 0-7.07zm-45.962 44.547 35.355-35.355 2.829 2.828-35.356 35.356zm-4.243-4.242 35.356-35.356 2.829 2.829-35.356 35.355zm36.77-36.77 1.414-1.415 7.072 7.072-1.414 1.414zm-37.846 38.522 6.4 6.395-5.94 2.546-3-3zm-3.395 7.919 1.871 1.871-3.274 1.403zm53.262-44.32-2.122 2.122-7.071-7.071 2.122-2.122a3.072 3.072 0 0 1 4.242 0l2.829 2.829a3 3 0 0 1 0 4.242z" fill="#57a4ff"/></svg>